<?xml version="1.0" encoding="UTF-8" standalone="no"?>
<!-- Created with Inkscape (http://www.inkscape.org/) -->

<svg
   xmlns:dc="http://purl.org/dc/elements/1.1/"
   xmlns:cc="http://creativecommons.org/ns#"
   xmlns:rdf="http://www.w3.org/1999/02/22-rdf-syntax-ns#"
   xmlns:svg="http://www.w3.org/2000/svg"
   xmlns="http://www.w3.org/2000/svg"
   xmlns:sodipodi="http://sodipodi.sourceforge.net/DTD/sodipodi-0.dtd"
   xmlns:inkscape="http://www.inkscape.org/namespaces/inkscape"
   width="126.93698mm"
   height="125.6384mm"
   viewBox="0 0 126.93698 125.6384"
   version="1.1"
   id="svg8"
   inkscape:version="0.92.3 (2405546, 2018-03-11)"
   sodipodi:docname="rgb.svg">
  <defs
     id="defs2" />
  <sodipodi:namedview
     id="base"
     pagecolor="#ffffff"
     bordercolor="#666666"
     borderopacity="1.0"
     inkscape:pageopacity="0.0"
     inkscape:pageshadow="2"
     inkscape:zoom="0.98994949"
     inkscape:cx="105.68731"
     inkscape:cy="241.26451"
     inkscape:document-units="mm"
     inkscape:current-layer="layer1"
     showgrid="false"
     scale-x="0.1"
     fit-margin-top="0"
     fit-margin-left="0"
     fit-margin-right="0"
     fit-margin-bottom="0"
     inkscape:window-width="1853"
     inkscape:window-height="1025"
     inkscape:window-x="67"
     inkscape:window-y="27"
     inkscape:window-maximized="1" />
  <metadata
     id="metadata5">
    <rdf:RDF>
      <cc:Work
         rdf:about="">
        <dc:format>image/svg+xml</dc:format>
        <dc:type
           rdf:resource="http://purl.org/dc/dcmitype/StillImage" />
        <dc:title></dc:title>
      </cc:Work>
    </rdf:RDF>
  </metadata>
  <g
     inkscape:label="Layer 1"
     inkscape:groupmode="layer"
     id="layer1"
     transform="translate(-25.985427,-21.495174)">
    <g
       id="g846"
       transform="translate(-12.828937,-2.4054247)"
       inkscape:export-filename="/home/jesse/Projects/integratedSmartHome/doc/assets/renders/rgb.png"
       inkscape:export-xdpi="60.029789"
       inkscape:export-ydpi="60.029789">
      <path
         style="fill:#5bd6ef;stroke-width:0.42463177"
         d="m 69.733086,148.83769 c -7.245682,-1.57796 -13.165261,-4.68677 -18.488986,-9.70994 -4.100261,-3.86876 -6.531534,-7.1439 -8.831314,-11.89653 -2.924386,-6.04342 -3.601207,-9.25755 -3.593191,-17.06352 0.0063,-6.12276 0.115296,-7.10765 1.167862,-10.551701 1.616583,-5.289537 4.047943,-9.959229 7.302926,-14.026055 4.30042,-5.373014 8.290337,-8.224795 17.663419,-12.62487 0.0735,-0.03448 -0.08835,-1.269526 -0.359674,-2.744488 -0.680987,-3.70192 -0.586599,-11.368813 0.18371,-14.921717 2.598593,-11.98557 9.917652,-21.623756 20.583902,-27.106141 10.054728,-5.168065 22.29519,-5.701389 32.69394,-1.424494 11.04271,4.541747 19.96453,14.766493 23.05359,26.420295 1.51925,5.731518 1.56665,13.63051 0.11697,19.494747 -0.19516,0.789503 0.16549,1.119949 2.48145,2.273621 10.38103,5.171197 17.84891,14.271187 20.92916,25.503233 1.37034,4.99692 1.36799,14.5946 -0.005,19.62616 -3.90712,14.32034 -14.69252,24.88979 -29.10843,28.52562 -4.22014,1.06436 -13.39509,1.08637 -17.65618,0.0424 -4.18387,-1.0251 -8.80578,-3.02287 -12.48841,-5.39797 l -3.19574,-2.06109 -2.447539,1.63742 c -3.606679,2.41289 -7.274907,4.12024 -11.50587,5.35532 -5.174553,1.51053 -13.242834,1.79395 -18.496788,0.64974 z m 42.507514,-47.6165 c 2.65621,-0.67603 2.97908,-0.8674 2.88848,-1.712051 -0.21457,-2.000298 -2.7542,-7.64882 -4.87184,-10.83569 -2.42665,-3.651896 -7.15924,-8.683608 -8.16739,-8.683608 -0.83696,0 -5.658414,5.070023 -7.630177,8.023545 -1.978415,2.963482 -3.69266,6.327865 -4.704113,9.232309 -0.438882,1.260282 -0.79797,2.348609 -0.79797,2.418508 0,0.2354 5.770858,1.827477 8.129102,2.242667 3.340468,0.58812 11.621168,0.21344 15.153908,-0.68568 z"
         id="path858"
         inkscape:connector-curvature="0" />
      <path
         style="fill:#f1e945;stroke-width:0.42463177"
         d="m 72.723564,149.19581 c -15.773944,-2.14804 -28.655481,-13.57805 -32.77598,-29.08268 -1.314458,-4.94605 -1.51675,-13.16831 -0.442156,-17.9717 2.234619,-9.988643 8.407227,-18.979154 16.840772,-24.528878 3.003231,-1.976282 8.598173,-4.682658 8.87507,-4.29303 0.05013,0.07055 0.533723,1.362815 1.074645,2.871708 4.498094,12.547357 14.404665,21.590487 27.360998,24.97626 4.786547,1.25082 13.144117,1.35058 18.041317,0.21534 1.8164,-0.42106 3.40399,-0.92775 3.52799,-1.12596 0.124,-0.19822 -0.27564,-1.753016 -0.88808,-3.45511 -6.4865,-18.027247 -25.57946,-28.732923 -44.383908,-24.886656 -2.345514,0.479752 -4.403027,0.735487 -4.572245,0.568306 -0.703002,-0.694538 -1.294583,-6.885139 -1.077504,-11.275591 0.523202,-10.581721 4.740673,-19.565278 12.597877,-26.83447 7.535292,-6.971375 15.953156,-10.237461 26.3668,-10.23018 10.96594,0.0077 19.88825,3.777307 27.76873,11.732188 6.51714,6.578661 10.23588,14.847638 11.10786,24.699361 0.24833,2.805696 -0.0534,6.662101 -0.89751,11.469969 l -0.27237,1.55137 2.72081,1.355353 c 10.39273,5.177047 17.85855,14.271707 20.94017,25.50872 1.37034,4.99692 1.36799,14.5946 -0.005,19.62616 -3.90712,14.32034 -14.69252,24.88979 -29.10843,28.52562 -4.22014,1.06436 -13.39509,1.08637 -17.65618,0.0424 -4.1853,-1.02545 -8.8061,-3.02307 -12.49269,-5.40073 -1.76003,-1.13512 -3.28978,-2.06385 -3.39945,-2.06385 -0.10967,0 -1.13881,0.66676 -2.286965,1.4817 -3.061447,2.17295 -8.826624,4.7152 -12.841106,5.66249 -4.251136,1.00313 -10.352498,1.37548 -14.123675,0.86193 z"
         id="path856"
         inkscape:connector-curvature="0" />
      <path
         style="fill:#f77100;stroke-width:0.42463177"
         d="m 72.723564,149.19581 c -15.773944,-2.14804 -28.655481,-13.57805 -32.77598,-29.08268 -1.314458,-4.94605 -1.51675,-13.16831 -0.442156,-17.9717 2.234619,-9.988643 8.407227,-18.979154 16.840772,-24.528878 3.003231,-1.976282 8.598173,-4.682658 8.87507,-4.29303 0.05013,0.07055 0.533723,1.362815 1.074645,2.871708 4.199961,11.715723 12.984047,20.295072 24.873215,24.29347 4.442509,1.49405 8.776238,2.02904 14.15243,1.7471 7.30427,-0.38305 13.44537,-2.416058 19.57863,-6.481488 4.00284,-2.653279 9.54367,-8.512425 11.85964,-12.540971 1.8055,-3.140599 3.89031,-8.131129 3.89031,-9.312447 0,-0.352013 -1.33893,-0.932593 -3.52449,-1.528261 -4.3909,-1.19674 -12.73102,-1.596704 -17.16791,-0.823316 -5.5285,0.963666 -12.23972,3.805344 -16.13245,6.83084 l -1.57994,1.227952 -2.478569,-1.658347 c -8.935537,-5.978537 -19.56001,-8.127715 -29.812549,-6.030658 -2.345514,0.479752 -4.403027,0.735487 -4.572245,0.568306 -0.703002,-0.694538 -1.294583,-6.885139 -1.077504,-11.275591 0.523202,-10.581721 4.740673,-19.565278 12.597877,-26.83447 7.535292,-6.971375 15.953156,-10.237461 26.3668,-10.23018 10.96594,0.0077 19.88825,3.777307 27.76873,11.732188 6.51714,6.578661 10.23588,14.847638 11.10786,24.699361 0.24692,2.789729 0.074,5.044458 -0.89011,11.606867 -0.24777,1.686537 -0.24594,1.689103 1.7813,2.498123 3.00585,1.199555 7.7362,4.466871 10.77905,7.44524 10.77117,10.542922 14.60999,25.915712 10.04494,40.225532 -1.34953,4.23031 -2.61889,6.76023 -5.37379,10.71039 -2.26733,3.25105 -6.63484,7.57481 -9.87878,9.77983 -3.00702,2.04398 -8.64239,4.5697 -12.44393,5.57725 -4.99841,1.32477 -13.96753,1.32536 -18.97148,0.001 -4.47601,-1.18444 -8.21631,-2.84424 -11.98044,-5.31651 -1.60197,-1.05216 -3.03056,-1.91302 -3.17464,-1.91302 -0.14408,0 -1.20137,0.66676 -2.349525,1.4817 -3.061447,2.17295 -8.826624,4.7152 -12.841106,5.66249 -4.251136,1.00313 -10.352498,1.37548 -14.123675,0.86193 z"
         id="path854"
         inkscape:connector-curvature="0" />
      <path
         style="fill:#0095bd;stroke-width:0.42463177"
         d="m 72.723564,149.19581 c -15.773944,-2.14804 -28.655481,-13.57805 -32.77598,-29.08268 -1.314458,-4.94605 -1.51675,-13.16831 -0.442156,-17.9717 2.234619,-9.988643 8.407227,-18.979154 16.840772,-24.528878 3.003231,-1.976282 8.598173,-4.682658 8.87507,-4.29303 0.05013,0.07055 0.533723,1.362815 1.074645,2.871708 3.517585,9.812243 10.361406,17.562891 19.4978,22.081318 l 3.030687,1.498835 -0.586877,2.665747 c -0.738857,3.35609 -0.826807,11.57387 -0.159525,14.90572 1.551255,7.74566 4.960226,14.43021 10.306223,20.20916 3.105577,3.35708 3.535467,3.52789 5.380277,2.13772 2.4713,-1.86226 6.90636,-7.73221 8.91187,-11.79518 3.07221,-6.22398 3.80796,-9.47289 3.82326,-16.88272 0.007,-3.48206 -0.14914,-7.32815 -0.34742,-8.54687 -0.26926,-1.6551 -0.22882,-2.21586 0.1598,-2.21586 0.28616,0 2.08246,-0.771282 3.99179,-1.713962 6.59346,-3.255347 12.4968,-8.581101 16.21541,-14.628895 1.64418,-2.674024 4.13093,-8.242556 4.13093,-9.250302 0,-1.015495 1.40934,-0.622432 5.12654,1.429793 5.08653,2.80822 11.82184,9.454844 14.64869,14.455805 11.40208,20.171351 3.69422,45.158071 -16.99835,55.103911 -5.59209,2.68782 -10.30054,3.72143 -16.87484,3.7044 -8.03659,-0.0208 -14.18793,-1.80057 -20.87851,-6.04073 -1.83935,-1.16569 -3.46881,-2.11943 -3.62102,-2.11943 -0.15221,0 -1.21615,0.66676 -2.364305,1.4817 -3.061447,2.17295 -8.826624,4.7152 -12.841106,5.66249 -4.251136,1.00313 -10.352498,1.37548 -14.123675,0.86193 z M 100.34494,78.316017 c -7.959664,-5.951951 -20.092338,-8.507344 -30.390708,-6.400913 -2.345514,0.479752 -4.403027,0.735487 -4.572245,0.568306 -0.703002,-0.694538 -1.294583,-6.885139 -1.077504,-11.275591 0.523202,-10.581721 4.740673,-19.565278 12.597877,-26.83447 7.535292,-6.971375 15.953156,-10.237461 26.3668,-10.23018 10.96594,0.0077 19.88825,3.777307 27.76873,11.732188 8.8065,8.889637 12.79828,21.948216 10.52635,34.435619 l -0.58115,3.194205 -3.47736,-1.024181 c -4.35924,-1.283922 -12.91706,-1.743035 -17.52306,-0.940085 -5.53881,0.965565 -12.25751,3.804381 -16.13416,6.817076 -0.8562,0.665378 -1.62518,1.204498 -1.70885,1.19804 -0.0837,-0.0065 -0.89129,-0.564465 -1.79472,-1.240014 z"
         id="path852"
         inkscape:connector-curvature="0" />
      <path
         style="fill:#00b694;stroke-width:0.42463177"
         d="m 121.50803,149.20665 c -5.58705,-0.77521 -10.80055,-2.72688 -16.08932,-6.02302 -3.65728,-2.27933 -4.7153,-3.04953 -3.62794,-2.641 1.66723,0.6264 8.33797,-7.20818 11.13506,-13.07781 2.8529,-5.98674 3.5589,-9.23699 3.5738,-16.45299 0.007,-3.48206 -0.14914,-7.32815 -0.34742,-8.54687 -0.26926,-1.6551 -0.22882,-2.21586 0.1598,-2.21586 0.28616,0 2.08246,-0.771282 3.99179,-1.713962 6.59346,-3.255347 12.4968,-8.581101 16.21541,-14.628895 1.64418,-2.674024 4.13093,-8.242556 4.13093,-9.250302 0,-1.015495 1.40934,-0.622432 5.12654,1.429793 5.08653,2.80822 11.82184,9.454844 14.64869,14.455805 11.402,20.171211 3.69251,45.162841 -16.99835,55.103011 -6.46202,3.10443 -15.10014,4.50824 -21.91899,3.5621 z M 87.316197,112.067 c 0,-0.58034 0.09697,-0.81775 0.215481,-0.52758 0.118513,0.29017 0.118513,0.76499 0,1.05517 -0.118512,0.29017 -0.215481,0.0528 -0.215481,-0.52759 z m 0,-3.79861 c 0,-0.58034 0.09697,-0.81776 0.215481,-0.52758 0.118513,0.29017 0.118513,0.76499 0,1.05517 -0.118512,0.29017 -0.215481,0.0528 -0.215481,-0.52759 z M 98.710612,77.240816 C 95.006717,74.721889 90.040634,72.682512 85.204685,71.694459 81.201728,70.876597 71.640468,71.120612 68.032841,72.132701 66.745256,72.493924 65.55285,72.652216 65.383046,72.484457 64.6791,71.788986 64.087263,65.601166 64.304483,61.207819 64.827685,50.626098 69.045156,41.642541 76.90236,34.373349 c 7.535292,-6.971375 15.953156,-10.237461 26.3668,-10.23018 10.96594,0.0077 19.88825,3.777307 27.76873,11.732188 8.8065,8.889637 12.79828,21.948216 10.52635,34.435619 l -0.58115,3.194205 -3.47736,-1.024181 c -4.35924,-1.283922 -12.91706,-1.743035 -17.52306,-0.940085 -5.53881,0.965565 -12.25751,3.804381 -16.13416,6.817076 -0.8562,0.665378 -1.62518,1.18764 -1.70885,1.160577 -0.0837,-0.02705 -1.62674,-1.05205 -3.429048,-2.277752 z"
         id="path850"
         inkscape:connector-curvature="0" />
      <path
         style="fill:#e60022;stroke-width:0.42463177"
         d="m 121.50803,149.20665 c -5.61691,-0.77936 -10.87199,-2.75262 -16.02107,-6.01585 l -3.36293,-2.13126 1.94188,-1.63989 c 2.78413,-2.35115 6.9838,-8.01783 8.85992,-11.95483 2.8529,-5.98674 3.5589,-9.23699 3.5738,-16.45299 0.007,-3.48206 -0.14914,-7.32815 -0.34742,-8.54687 -0.26926,-1.6551 -0.22882,-2.21586 0.1598,-2.21586 0.28616,0 2.08246,-0.771282 3.99179,-1.713962 6.59346,-3.255347 12.4968,-8.581101 16.21541,-14.628895 1.64418,-2.674024 4.13093,-8.242556 4.13093,-9.250302 0,-1.015495 1.40934,-0.622432 5.12654,1.429793 5.08653,2.80822 11.82184,9.454844 14.64869,14.455805 11.402,20.171211 3.69251,45.162841 -16.99835,55.103011 -6.46202,3.10443 -15.10014,4.50824 -21.91899,3.5621 z"
         id="path848"
         inkscape:connector-curvature="0" />
    </g>
  </g>
</svg>
