<?xml version="1.0" encoding="UTF-8" standalone="no"?>
<!-- Created with Inkscape (http://www.inkscape.org/) -->

<svg
   xmlns:dc="http://purl.org/dc/elements/1.1/"
   xmlns:cc="http://creativecommons.org/ns#"
   xmlns:rdf="http://www.w3.org/1999/02/22-rdf-syntax-ns#"
   xmlns:svg="http://www.w3.org/2000/svg"
   xmlns="http://www.w3.org/2000/svg"
   xmlns:sodipodi="http://sodipodi.sourceforge.net/DTD/sodipodi-0.dtd"
   xmlns:inkscape="http://www.inkscape.org/namespaces/inkscape"
   width="253.31607pt"
   height="299.89621pt"
   viewBox="0 0 89.364283 105.79672"
   version="1.1"
   id="svg8"
   inkscape:version="0.92.3 (2405546, 2018-03-11)"
   sodipodi:docname="tempSensor.svg"
   inkscape:export-filename="/home/jesse/Projects/integratedSmartHome/doc/assets/renders/tempSensor.png"
   inkscape:export-xdpi="51.161453"
   inkscape:export-ydpi="51.161453">
  <defs
     id="defs2" />
  <sodipodi:namedview
     id="base"
     pagecolor="#ffffff"
     bordercolor="#666666"
     borderopacity="1.0"
     inkscape:pageopacity="0.0"
     inkscape:pageshadow="2"
     inkscape:zoom="1.979899"
     inkscape:cx="150.00404"
     inkscape:cy="202.17409"
     inkscape:document-units="pt"
     inkscape:current-layer="g5271"
     showgrid="false"
     units="pt"
     inkscape:pagecheckerboard="true"
     fit-margin-top="0"
     fit-margin-left="0"
     fit-margin-right="0"
     fit-margin-bottom="0"
     inkscape:window-width="1853"
     inkscape:window-height="1025"
     inkscape:window-x="67"
     inkscape:window-y="27"
     inkscape:window-maximized="1" />
  <metadata
     id="metadata5">
    <rdf:RDF>
      <cc:Work
         rdf:about="">
        <dc:format>image/svg+xml</dc:format>
        <dc:type
           rdf:resource="http://purl.org/dc/dcmitype/StillImage" />
        <dc:title></dc:title>
      </cc:Work>
    </rdf:RDF>
  </metadata>
  <g
     inkscape:label="Layer 1"
     inkscape:groupmode="layer"
     id="layer1"
     transform="translate(-51.352227,-70.820197)">
    <g
       id="g5271">
      <g
         style="fill:#f50000;fill-opacity:1"
         id="g4546">
        <text
           xml:space="preserve"
           style="font-style:normal;font-weight:normal;font-size:17.85156059px;line-height:1.25;font-family:sans-serif;letter-spacing:0px;word-spacing:0px;fill:#000000;fill-opacity:1;stroke:none;stroke-width:0.446289"
           x="71.511307"
           y="101.26585"
           id="text3730"
           transform="scale(0.95762922,1.0442455)"><tspan
             sodipodi:role="line"
             id="tspan3728"
             x="71.511307"
             y="101.26585"
             style="fill:#000000;fill-opacity:1;stroke-width:0.446289">F</tspan></text>
        <circle
           id="path3732"
           cx="66.329666"
           cy="92.280991"
           r="2.0710118"
           style="fill:none;fill-opacity:1;stroke:#000000;stroke-width:0.66840416;stroke-miterlimit:4;stroke-dasharray:none;stroke-opacity:1" />
      </g>
      <path
         inkscape:connector-curvature="0"
         id="path5260"
         transform="matrix(0.26458334,0,0,0.26458334,51.35236,70.820198)"
         d="m 75.314453,24.388672 c -12.834787,0.04102 -25.689361,5.152785 -35.132812,15.322266 -2.790388,3.004913 -6.267111,7.654047 -7.72461,10.332031 -5.760113,10.58313 -5.672382,8.772314 -5.6875,117.259761 l -0.01563,99.5625 -3.091797,2.9375 c -22.290519,21.17284 -29.7446876,54.6045 -18.4414059,82.71485 9.6189729,23.92169 31.9820909,42.16733 57.2968749,46.74804 6.866306,1.24249 24.764914,0.43511 31.736328,-1.43164 3.299981,-0.88365 10.274999,-3.70321 15.500009,-6.26562 8.01736,-3.93181 10.9261,-6.08223 18.63086,-13.7832 7.97469,-7.97069 9.77951,-10.45764 14.26953,-19.65039 6.58574,-13.48343 8.57354,-23.15724 7.78906,-37.89649 -0.958,-17.99996 -7.70238,-33.61726 -20.27539,-46.94531 l -6.41406,-6.79688 V 166.04883 c 0,-89.46203 -0.17606,-101.041377 -1.61133,-105.878908 C 119.66343,51.814105 116.32004,45.964627 110.32227,39.486328 100.96279,29.376886 88.14924,24.34765 75.314453,24.388672 Z m -0.05469,14.960937 c 0.946662,0.0072 1.913306,0.05115 2.90625,0.13086 13.982184,1.12233 26.611547,11.661194 30.222657,25.220703 1.07989,4.055622 1.34218,24.90272 1.35352,106.927738 l 0.0117,101.89062 7.41601,7.29688 c 15.42607,15.17786 22.26274,36.00493 18.19336,55.42187 -4.71228,22.48471 -22.08591,41.3297 -43.609377,47.30078 -31.85426,8.83604 -65.212214,-9.60495 -75.154297,-41.54883 -2.456352,-7.89169 -2.598256,-23.05137 -0.304687,-32.44531 2.913033,-11.93117 11.397779,-25.21393 20.316406,-31.80664 l 4.056641,-3 0.292969,-104.5 0.292968,-104.499999 2.591797,-5.5 c 3.359433,-7.133442 6.728172,-11.031971 13.175781,-15.25 6.015657,-3.935499 11.611645,-5.68888 18.238282,-5.638672 z"
         style="fill:#000000;fill-opacity:1;stroke:none;stroke-width:1;stroke-miterlimit:4;stroke-dasharray:none;stroke-opacity:1" />
      <path
         inkscape:connector-curvature="0"
         id="path5256"
         transform="translate(-8.400555e-7,-1.0802272e-6)"
         d="m 67.749454,165.5813 c -0.80658,-0.3171 -2.048,-1.15179 -2.93662,-1.9745 -5.07153,-4.69534 -3.78096,-12.7642 2.5016,-15.64045 l 1.4354,-0.65715 v -16.91394 -16.91393 h 2.51354 2.513543 v 16.91849 16.9185 l 1.58335,0.71057 c 1.92412,0.86349 3.72963,2.70674 4.71901,4.81766 0.60449,1.2897 0.7091,1.86422 0.7091,3.89415 0,2.07614 -0.0956,2.57582 -0.74569,3.89981 -0.9525,1.93968 -2.8218,3.80782 -4.67764,4.67471 -2.021,0.94405 -5.575223,1.06822 -7.615593,0.26608 z"
         style="fill:#d75151;fill-opacity:1;stroke:none;stroke-width:0.26458335" />
      <path
         inkscape:connector-curvature="0"
         id="path5254"
         transform="translate(-8.400555e-7,-1.0802272e-6)"
         d="m 118.11762,108.43923 c -0.0976,-0.73587 -0.48545,-2.1917 -0.86186,-3.23518 -2.31621,-6.421062 -8.44341,-11.047472 -15.49915,-11.702782 l -2.050523,-0.19045 v -2.74704 -2.74704 h 1.564233 c 5.20671,0 11.45876,2.65573 15.45766,6.56608 4.16917,4.07685 6.3109,8.322482 7.19848,14.269862 l 0.16781,1.12448 h -2.89958 -2.89959 z"
         style="fill:#000000;stroke-width:0.26458335" />
      <path
         inkscape:connector-curvature="0"
         id="path3724"
         transform="translate(-8.400555e-7,-1.0802272e-6)"
         d="m 134.8081,106.61366 c -2.01409,-14.350612 -12.3748,-25.634412 -26.75527,-29.139072 -1.17097,-0.28537 -3.52801,-0.59362 -5.23788,-0.685 l -3.108863,-0.16614 v -2.90162 -2.90163 l 2.844273,0.18331 c 5.69437,0.36699 10.50787,1.6632 15.80886,4.25709 11.61579,5.68386 19.68424,16.55414 21.98322,29.617082 0.20534,1.16675 0.37351,2.74643 0.37371,3.51042 l 3.6e-4,1.38906 h -2.73221 -2.7322 z"
         style="fill:#000000;stroke-width:0.26458335" />
    </g>
  </g>
</svg>
