<?xml version="1.0" encoding="UTF-8" standalone="no"?>
<!-- Created with Inkscape (http://www.inkscape.org/) -->

<svg
   xmlns:dc="http://purl.org/dc/elements/1.1/"
   xmlns:cc="http://creativecommons.org/ns#"
   xmlns:rdf="http://www.w3.org/1999/02/22-rdf-syntax-ns#"
   xmlns:svg="http://www.w3.org/2000/svg"
   xmlns="http://www.w3.org/2000/svg"
   xmlns:sodipodi="http://sodipodi.sourceforge.net/DTD/sodipodi-0.dtd"
   xmlns:inkscape="http://www.inkscape.org/namespaces/inkscape"
   width="253.3157pt"
   height="299.89627pt"
   viewBox="0 0 89.364154 105.79674"
   version="1.1"
   id="svg8"
   inkscape:version="0.92.4 (5da689c313, 2019-01-14)"
   sodipodi:docname="tempSensor.svg"
   inkscape:export-filename="C:\Projects\integratedsmarthome\doc\assets\renders\tempSensor.png"
   inkscape:export-xdpi="39.792244"
   inkscape:export-ydpi="39.792244">
  <defs
     id="defs2" />
  <sodipodi:namedview
     id="base"
     pagecolor="#ffffff"
     bordercolor="#666666"
     borderopacity="1.0"
     inkscape:pageopacity="0.0"
     inkscape:pageshadow="2"
     inkscape:zoom="2.8"
     inkscape:cx="154.49661"
     inkscape:cy="139.90946"
     inkscape:document-units="pt"
     inkscape:current-layer="layer1"
     showgrid="false"
     units="pt"
     inkscape:pagecheckerboard="true"
     fit-margin-top="0"
     fit-margin-left="0"
     fit-margin-right="0"
     fit-margin-bottom="0"
     inkscape:window-width="3840"
     inkscape:window-height="2035"
     inkscape:window-x="3827"
     inkscape:window-y="-13"
     inkscape:window-maximized="1" />
  <metadata
     id="metadata5">
    <rdf:RDF>
      <cc:Work
         rdf:about="">
        <dc:format>image/svg+xml</dc:format>
        <dc:type
           rdf:resource="http://purl.org/dc/dcmitype/StillImage" />
        <dc:title></dc:title>
      </cc:Work>
    </rdf:RDF>
  </metadata>
  <g
     inkscape:label="Layer 1"
     inkscape:groupmode="layer"
     id="layer1"
     transform="translate(-51.35236,-70.820198)">
    <g
       id="g4546">
      <path
         inkscape:connector-curvature="0"
         id="path3724"
         d="m 67.893484,176.45923 c -6.69787,-1.21198 -12.61462,-6.03944 -15.15964,-12.36872 -2.99066,-7.43753 -1.01859,-16.28327 4.87911,-21.88525 l 0.81813,-0.7771 0.004,-26.34269 c 0.004,-28.703972 -0.019,-28.224572 1.50503,-31.024692 0.38563,-0.70855 1.30521,-1.93876 2.0435,-2.73381 4.99716,-5.38135 13.605703,-5.40888 18.558423,-0.0593 1.58691,1.71405 2.4714,3.26184 3.12734,5.47265 0.37975,1.27993 0.42638,4.34351 0.42638,28.013672 v 26.57657 l 1.69676,1.79865 c 3.32661,3.52638 5.11129,7.65842 5.36476,12.42091 0.20756,3.89976 -0.31854,6.4592 -2.06102,10.02669 -1.18798,2.43225 -1.66561,3.08993 -3.77558,5.19884 -2.03855,2.03755 -2.80782,2.60673 -4.92908,3.64702 -1.38245,0.67797 -3.22792,1.42396 -4.10104,1.65776 -1.84452,0.49391 -6.580273,0.70758 -8.396983,0.37884 z m 7.735523,-4.16105 c 5.69475,-1.57985 10.29162,-6.56569 11.53841,-12.51477 1.07669,-5.1374 -0.73238,-10.6482 -4.81386,-14.66401 l -1.96205,-1.93048 -0.003,-26.95848 c -0.003,-21.702452 -0.0724,-27.218372 -0.35812,-28.291422 -0.95544,-3.58762 -4.29697,-6.37618 -7.996423,-6.67313 -2.10173,-0.16871 -3.77583,0.26737 -5.59485,1.45739 -1.70593,1.11602 -2.59727,2.14774 -3.48612,4.03513 l -0.68531,1.4552 -0.0775,27.648972 -0.0775,27.64896 -1.07378,0.79375 c -2.35972,1.74432 -4.60437,5.2586 -5.37511,8.41539 -0.60684,2.48548 -0.56911,6.49638 0.0808,8.58439 2.63056,8.45198 11.4564,13.3313 19.884653,10.99311 z m -7.879553,-6.71688 c -0.80658,-0.3171 -2.048,-1.15179 -2.93662,-1.9745 -5.07153,-4.69534 -3.78096,-12.7642 2.5016,-15.64045 l 1.4354,-0.65715 v -16.91394 -16.91393 h 2.51354 2.513543 v 16.91849 16.9185 l 1.58335,0.71057 c 1.92412,0.86349 3.72963,2.70674 4.71901,4.81766 0.60449,1.2897 0.7091,1.86422 0.7091,3.89415 0,2.07614 -0.0956,2.57582 -0.74569,3.89981 -0.9525,1.93968 -2.8218,3.80782 -4.67764,4.67471 -2.021,0.94405 -5.575223,1.06822 -7.615593,0.26608 z m 50.368166,-57.14207 c -0.0976,-0.73587 -0.48545,-2.1917 -0.86186,-3.23518 -2.31621,-6.421062 -8.44341,-11.047472 -15.49915,-11.702782 l -2.050523,-0.19045 v -2.74704 -2.74704 h 1.564233 c 5.20671,0 11.45876,2.65573 15.45766,6.56608 4.16917,4.07685 6.3109,8.322482 7.19848,14.269862 l 0.16781,1.12448 h -2.89958 -2.89959 z m 16.69048,-1.82557 c -2.01409,-14.350612 -12.3748,-25.634412 -26.75527,-29.139072 -1.17097,-0.28537 -3.52801,-0.59362 -5.23788,-0.685 l -3.108863,-0.16614 v -2.90162 -2.90163 l 2.844273,0.18331 c 5.69437,0.36699 10.50787,1.6632 15.80886,4.25709 11.61579,5.68386 19.68424,16.55414 21.98322,29.617082 0.20534,1.16675 0.37351,2.74643 0.37371,3.51042 l 3.6e-4,1.38906 h -2.73221 -2.7322 z"
         style="fill:#000000;stroke-width:0.26458335" />
      <text
         transform="scale(0.95762922,1.0442455)"
         id="text3730"
         y="101.26585"
         x="71.511307"
         style="font-style:normal;font-weight:normal;font-size:17.85156059px;line-height:1.25;font-family:sans-serif;letter-spacing:0px;word-spacing:0px;fill:#000000;fill-opacity:1;stroke:none;stroke-width:0.446289"
         xml:space="preserve"><tspan
           style="stroke-width:0.446289"
           y="101.26585"
           x="71.511307"
           id="tspan3728"
           sodipodi:role="line">F</tspan></text>
      <circle
         style="fill:none;fill-opacity:1;stroke:#000000;stroke-width:0.66840416;stroke-miterlimit:4;stroke-dasharray:none;stroke-opacity:1"
         r="2.0710118"
         cy="92.280991"
         cx="66.329666"
         id="path3732" />
    </g>
  </g>
</svg>
